<svg width="520" height="520" viewBox="0 0 520 520" fill="none" xmlns="http://www.w3.org/2000/svg">
<g clip-path="url(#clip0_10_3)">
<path d="M384.211 64.509C392.831 50.9017 387.682 32.7429 373.213 25.7938C301.023 -8.99504 215.338 -8.75984 142.987 27.7552C79.4177 59.8416 32.7524 115.049 11.7264 183.286C-9.29666 251.471 -1.85607 323.467 32.648 386.095C96.9584 502.807 242.693 552.131 364.479 498.397C368.719 496.541 372.912 494.578 377.007 492.504C458.948 451.134 513.151 369.998 519.415 277.766C521.266 251.515 509.195 227.148 487.204 212.542C464.96 197.766 437.474 196.106 413.714 208.123C391.089 219.523 375.819 242.448 373.858 267.855C370.781 307.45 347.751 341.725 312.409 359.585C300.505 365.566 287.992 369.364 275.24 370.896C257.952 373.061 240.271 371.066 223.247 364.863C193.817 354.081 170.822 332.24 158.44 303.192C136.485 251.858 157.159 189.837 205.476 161.865C210.833 158.762 216.427 156.092 222.092 154.002C247.872 144.195 276.233 144.28 301.847 154.06C313.731 158.61 327.141 153.762 333.877 142.93C342.692 128.653 336.649 109.657 320.972 103.688C274.713 86.0328 222.425 89.8341 178.497 115.172C121.47 148.153 90.7729 210.655 96.1222 273.363C96.1163 273.468 96.1104 273.572 96.1016 273.729C97.5961 290.79 101.76 307.846 108.785 324.277L108.779 324.381C127.135 367.18 161.208 399.498 204.739 415.427C247.655 431.112 295.702 428.276 336.536 407.688C388.845 381.305 422.802 330.566 427.372 271.982C427.864 265.146 431.809 259.239 437.791 256.171C446.79 251.598 454.417 255.54 457.244 257.377C459.914 259.204 466.213 264.434 465.515 273.983C460.227 350.813 413.097 417.94 342.572 449.004C246.065 491.593 130.527 452.466 79.5485 360.034C52.1663 310.28 46.2892 253.201 62.9523 199.178C79.6184 145.104 116.637 101.298 167.064 75.8035C224.495 46.7756 292.691 46.7037 349.996 74.4677C362.172 80.3438 376.816 75.8802 384.005 64.445L384.211 64.509Z" fill="#6232FF"/>
</g>
<defs>
<clipPath id="clip0_10_3">
<rect width="520" height="520" fill="white"/>
</clipPath>
</defs>
</svg>
